<svg width="194" height="20" viewBox="0 0 194 20" fill="none" xmlns="http://www.w3.org/2000/svg">
<path d="M11.856 15.592H5.064L3.864 19H0.288L6.528 2.248H10.392L16.608 19H13.032L11.856 15.592ZM10.944 13.024L8.448 5.872L5.952 13.024H10.944ZM36.7464 5.704L33.1704 19H29.4264L26.5704 9.328L23.6424 19H19.8984L16.3464 5.704H19.7304L21.8904 15.976L24.8424 5.704H28.4184L31.3944 15.976L33.5784 5.704H36.7464ZM42.9212 5.536C44.0412 5.536 45.0012 5.8 45.8012 6.328C46.6012 6.856 47.1692 7.568 47.5052 8.464V5.704H50.8652V19H47.5052V16.216C47.1692 17.112 46.6012 17.832 45.8012 18.376C45.0012 18.904 44.0412 19.168 42.9212 19.168C41.8012 19.168 40.7932 18.896 39.8972 18.352C39.0012 17.808 38.2972 17.024 37.7852 16C37.2892 14.96 37.0412 13.744 37.0412 12.352C37.0412 10.96 37.2892 9.752 37.7852 8.728C38.2972 7.688 39.0012 6.896 39.8972 6.352C40.7932 5.808 41.8012 5.536 42.9212 5.536ZM43.9772 8.488C42.9212 8.488 42.0732 8.832 41.4332 9.52C40.7932 10.208 40.4732 11.152 40.4732 12.352C40.4732 13.552 40.7932 14.496 41.4332 15.184C42.0732 15.856 42.9212 16.192 43.9772 16.192C45.0012 16.192 45.8412 15.848 46.4972 15.16C47.1692 14.456 47.5052 13.52 47.5052 12.352C47.5052 11.168 47.1692 10.232 46.4972 9.544C45.8412 8.84 45.0012 8.488 43.9772 8.488ZM56.5959 8.248C57.0919 7.4 57.7479 6.736 58.5639 6.256C59.3799 5.76 60.2919 5.512 61.2999 5.512V9.136H60.3159C57.8359 9.136 56.5959 10.288 56.5959 12.592V19H53.2119V5.704H56.5959V8.248ZM67.6609 5.536C68.7809 5.536 69.7329 5.8 70.5169 6.328C71.3169 6.856 71.8929 7.568 72.2449 8.464V1.24H75.6049V19H72.2449V16.216C71.8929 17.112 71.3169 17.832 70.5169 18.376C69.7329 18.904 68.7809 19.168 67.6609 19.168C66.5409 19.168 65.5329 18.896 64.6369 18.352C63.7409 17.808 63.0369 17.024 62.5249 16C62.0289 14.96 61.7809 13.744 61.7809 12.352C61.7809 10.96 62.0289 9.752 62.5249 8.728C63.0369 7.688 63.7409 6.896 64.6369 6.352C65.5329 5.808 66.5409 5.536 67.6609 5.536ZM68.7169 8.488C67.6609 8.488 66.8129 8.832 66.1729 9.52C65.5329 10.208 65.2129 11.152 65.2129 12.352C65.2129 13.552 65.5329 14.496 66.1729 15.184C66.8129 15.856 67.6609 16.192 68.7169 16.192C69.7409 16.192 70.5809 15.848 71.2369 15.16C71.9089 14.456 72.2449 13.52 72.2449 12.352C72.2449 11.168 71.9089 10.232 71.2369 9.544C70.5809 8.84 69.7409 8.488 68.7169 8.488ZM82.5356 5.536C84.1516 5.536 85.4476 5.944 86.4236 6.76C87.3996 7.576 88.0076 8.664 88.2476 10.024H85.0796C84.9516 9.384 84.6636 8.872 84.2156 8.488C83.7676 8.104 83.1836 7.912 82.4636 7.912C81.8876 7.912 81.4396 8.048 81.1196 8.32C80.7996 8.592 80.6396 8.96 80.6396 9.424C80.6396 9.792 80.7676 10.088 81.0236 10.312C81.2796 10.536 81.5996 10.712 81.9836 10.84C82.3676 10.968 82.9196 11.12 83.6396 11.296C84.6476 11.52 85.4636 11.76 86.0876 12.016C86.7276 12.256 87.2716 12.648 87.7196 13.192C88.1836 13.72 88.4156 14.44 88.4156 15.352C88.4156 16.488 87.9676 17.408 87.0716 18.112C86.1916 18.816 84.9996 19.168 83.4956 19.168C81.7676 19.168 80.3836 18.784 79.3436 18.016C78.3036 17.232 77.6716 16.12 77.4476 14.68H80.6876C80.7676 15.336 81.0556 15.856 81.5516 16.24C82.0476 16.608 82.6956 16.792 83.4956 16.792C84.0716 16.792 84.5116 16.656 84.8156 16.384C85.1196 16.096 85.2716 15.728 85.2716 15.28C85.2716 14.896 85.1356 14.584 84.8636 14.344C84.6076 14.104 84.2796 13.92 83.8796 13.792C83.4956 13.664 82.9436 13.512 82.2236 13.336C81.2316 13.112 80.4236 12.888 79.7996 12.664C79.1916 12.424 78.6636 12.048 78.2156 11.536C77.7836 11.024 77.5676 10.32 77.5676 9.424C77.5676 8.272 78.0076 7.336 78.8876 6.616C79.7676 5.896 80.9836 5.536 82.5356 5.536ZM98.1066 8.248C98.6026 7.4 99.2586 6.736 100.075 6.256C100.891 5.76 101.803 5.512 102.811 5.512V9.136H101.827C99.3466 9.136 98.1066 10.288 98.1066 12.592V19H94.7226V5.704H98.1066V8.248ZM116.467 11.848C116.467 12.184 116.427 12.568 116.347 13H106.603C106.651 14.184 106.971 15.056 107.563 15.616C108.155 16.176 108.891 16.456 109.771 16.456C110.555 16.456 111.203 16.264 111.715 15.88C112.243 15.496 112.579 14.976 112.723 14.32H116.299C116.123 15.248 115.747 16.08 115.171 16.816C114.595 17.552 113.851 18.128 112.939 18.544C112.043 18.96 111.043 19.168 109.939 19.168C108.643 19.168 107.491 18.896 106.483 18.352C105.475 17.792 104.691 17 104.131 15.976C103.571 14.952 103.291 13.744 103.291 12.352C103.291 10.96 103.571 9.752 104.131 8.728C104.691 7.688 105.475 6.896 106.483 6.352C107.491 5.808 108.643 5.536 109.939 5.536C111.251 5.536 112.395 5.808 113.371 6.352C114.363 6.896 115.123 7.648 115.651 8.608C116.195 9.552 116.467 10.632 116.467 11.848ZM113.059 11.512C113.107 10.424 112.819 9.6 112.195 9.04C111.587 8.48 110.835 8.2 109.939 8.2C109.027 8.2 108.259 8.48 107.635 9.04C107.011 9.6 106.667 10.424 106.603 11.512H113.059ZM124.126 5.536C125.838 5.536 127.262 6 128.398 6.928C129.55 7.856 130.27 9.12 130.558 10.72H126.982C126.838 10.016 126.51 9.464 125.998 9.064C125.486 8.648 124.838 8.44 124.054 8.44C123.158 8.44 122.406 8.776 121.798 9.448C121.206 10.104 120.91 11.072 120.91 12.352C120.91 13.632 121.206 14.608 121.798 15.28C122.406 15.936 123.158 16.264 124.054 16.264C124.838 16.264 125.486 16.064 125.998 15.664C126.51 15.248 126.838 14.688 126.982 13.984H130.558C130.27 15.584 129.55 16.848 128.398 17.776C127.262 18.704 125.838 19.168 124.126 19.168C122.83 19.168 121.678 18.896 120.67 18.352C119.662 17.792 118.878 17 118.318 15.976C117.758 14.952 117.478 13.744 117.478 12.352C117.478 10.96 117.758 9.752 118.318 8.728C118.878 7.688 119.662 6.896 120.67 6.352C121.678 5.808 122.83 5.536 124.126 5.536ZM144.746 11.848C144.746 12.184 144.706 12.568 144.626 13H134.882C134.93 14.184 135.25 15.056 135.842 15.616C136.434 16.176 137.17 16.456 138.05 16.456C138.834 16.456 139.482 16.264 139.994 15.88C140.522 15.496 140.858 14.976 141.002 14.32H144.578C144.402 15.248 144.026 16.08 143.45 16.816C142.874 17.552 142.13 18.128 141.218 18.544C140.322 18.96 139.322 19.168 138.218 19.168C136.922 19.168 135.77 18.896 134.762 18.352C133.754 17.792 132.97 17 132.41 15.976C131.85 14.952 131.57 13.744 131.57 12.352C131.57 10.96 131.85 9.752 132.41 8.728C132.97 7.688 133.754 6.896 134.762 6.352C135.77 5.808 136.922 5.536 138.218 5.536C139.53 5.536 140.674 5.808 141.65 6.352C142.642 6.896 143.402 7.648 143.93 8.608C144.474 9.552 144.746 10.632 144.746 11.848ZM141.338 11.512C141.386 10.424 141.098 9.6 140.474 9.04C139.866 8.48 139.114 8.2 138.218 8.2C137.306 8.2 136.538 8.48 135.914 9.04C135.29 9.6 134.946 10.424 134.882 11.512H141.338ZM146.045 1.888C146.045 1.344 146.237 0.903999 146.621 0.568C147.005 0.216 147.509 0.0399995 148.133 0.0399995C148.757 0.0399995 149.261 0.216 149.645 0.568C150.029 0.903999 150.221 1.344 150.221 1.888C150.221 2.416 150.029 2.856 149.645 3.208C149.261 3.544 148.757 3.712 148.133 3.712C147.509 3.712 147.005 3.544 146.621 3.208C146.237 2.856 146.045 2.416 146.045 1.888ZM149.813 5.704V19H146.429V5.704H149.813ZM157.938 15.616L161.298 5.704H164.898L159.978 19H155.85L150.93 5.704H154.554L157.938 15.616ZM178.563 11.848C178.563 12.184 178.523 12.568 178.443 13H168.699C168.747 14.184 169.067 15.056 169.659 15.616C170.251 16.176 170.987 16.456 171.867 16.456C172.651 16.456 173.299 16.264 173.811 15.88C174.339 15.496 174.675 14.976 174.819 14.32H178.395C178.219 15.248 177.843 16.08 177.267 16.816C176.691 17.552 175.947 18.128 175.035 18.544C174.139 18.96 173.139 19.168 172.035 19.168C170.739 19.168 169.587 18.896 168.579 18.352C167.571 17.792 166.787 17 166.227 15.976C165.667 14.952 165.387 13.744 165.387 12.352C165.387 10.96 165.667 9.752 166.227 8.728C166.787 7.688 167.571 6.896 168.579 6.352C169.587 5.808 170.739 5.536 172.035 5.536C173.347 5.536 174.491 5.808 175.467 6.352C176.459 6.896 177.219 7.648 177.747 8.608C178.291 9.552 178.563 10.632 178.563 11.848ZM175.155 11.512C175.203 10.424 174.915 9.6 174.291 9.04C173.683 8.48 172.931 8.2 172.035 8.2C171.123 8.2 170.355 8.48 169.731 9.04C169.107 9.6 168.763 10.424 168.699 11.512H175.155ZM185.453 5.536C186.573 5.536 187.525 5.8 188.309 6.328C189.109 6.856 189.685 7.568 190.037 8.464V1.24H193.397V19H190.037V16.216C189.685 17.112 189.109 17.832 188.309 18.376C187.525 18.904 186.573 19.168 185.453 19.168C184.333 19.168 183.325 18.896 182.429 18.352C181.533 17.808 180.829 17.024 180.317 16C179.821 14.96 179.573 13.744 179.573 12.352C179.573 10.96 179.821 9.752 180.317 8.728C180.829 7.688 181.533 6.896 182.429 6.352C183.325 5.808 184.333 5.536 185.453 5.536ZM186.509 8.488C185.453 8.488 184.605 8.832 183.965 9.52C183.325 10.208 183.005 11.152 183.005 12.352C183.005 13.552 183.325 14.496 183.965 15.184C184.605 15.856 185.453 16.192 186.509 16.192C187.533 16.192 188.373 15.848 189.029 15.16C189.701 14.456 190.037 13.52 190.037 12.352C190.037 11.168 189.701 10.232 189.029 9.544C188.373 8.84 187.533 8.488 186.509 8.488Z" fill="#0D1317"/>
</svg>
