<svg xmlns="http://www.w3.org/2000/svg" width="120" height="25" fill="none"><g fill="#fff" clip-path="url(#a)"><path d="M119.787 18.562v2.97h-2.491c-2.658-.084-4.078-1.52-4.078-4.215v-6.783h-1.739V7.93h1.739V5.013h3.676v2.886h2.81v2.597h-2.81v6.456c0 .873.174 1.572 1.519 1.572l1.374.038ZM96.828 14.757v-.198a6.644 6.644 0 0 1 6.357-6.941h.532c3.471 0 6.516 2.02 6.516 6.835v1.025h-9.645c.098 2.218 1.298 3.471 3.319 3.471 1.739 0 2.552-.76 2.787-1.868h3.471c-.425 2.894-2.734 4.504-6.387 4.504-4.01-.03-6.95-2.567-6.95-6.828Zm9.79-1.603c-.129-2.02-1.147-2.992-2.916-2.992-1.77 0-2.788 1.094-3.038 2.992h5.954ZM81.82 14.757v-.198a6.646 6.646 0 0 1 6.342-6.941h.532c3.47 0 6.524 2.02 6.524 6.835v1.025H85.58c.099 2.218 1.299 3.471 3.319 3.471 1.74 0 2.552-.76 2.787-1.868h3.471c-.433 2.894-2.742 4.504-6.395 4.504-4.002-.03-6.942-2.567-6.942-6.828Zm9.79-1.603c-.129-2.02-1.147-2.992-2.916-2.992-1.77 0-2.757 1.124-3.038 2.985l5.954.007ZM60.76 7.899h3.888l2.378 9.007L69.63 7.9h3.038l2.354 9.007L77.53 7.9h3.562L76.87 21.28h-3.646l-2.278-8.4-2.438 8.4h-3.692L60.76 7.899ZM48.402 17.073h3.471c.16 1.208.76 1.9 2.355 1.9 1.428 0 2.088-.54 2.088-1.459s-.76-1.306-2.704-1.58c-3.562-.539-4.936-1.564-4.936-4.177 0-2.787 2.552-4.17 5.316-4.17 2.97 0 5.21 1.079 5.53 4.155h-3.426a1.806 1.806 0 0 0-1.982-1.633H54c-1.2 0-1.899.562-1.899 1.382 0 .82.646 1.177 2.605 1.458 3.327.502 5.188 1.345 5.188 4.208 0 2.863-2.104 4.398-5.628 4.398s-5.765-1.588-5.864-4.482ZM33.653 7.899h3.676v2.119a4.602 4.602 0 0 1 4.337-2.43c2.605 0 4.496 1.587 4.496 5.21v8.513h-3.63V13.33c0-1.815-.706-2.68-2.347-2.68a2.644 2.644 0 0 0-2.863 2.414 2.079 2.079 0 0 0 0 .486v7.732h-3.669V7.899ZM26.56 4.534a1.853 1.853 0 1 1 1.914 1.785h-.069a1.731 1.731 0 0 1-1.838-1.625 1.133 1.133 0 0 1-.007-.16Zm0 3.365h3.714V21.28h-3.699L26.56 7.9ZM12.563 2.992h11.741v3.243H16.71v4.838h6.015v3.122h-6.022v7.086h-4.14V2.992ZM5.476 8.977c0 1.147 0 2.544-1.58 3.114 1.618.555 1.58 1.732 1.58 2.962v4.557c0 .866.35 1.39.972 1.52.137.045.281.066.425.06h1.52v3.038H5.885c-2.673 0-4.147-1.52-4.147-4.337V14.5a1.109 1.109 0 0 0-1.086-1.033H0V10.8h.653A1.101 1.101 0 0 0 1.74 9.737V4.268C1.74 1.496 3.182 0 5.886 0h2.53v2.992h-1.52c-.144 0-.288.024-.425.069-.623.16-.972.676-.972 1.519l-.023 4.397Z"/></g><defs><clipPath id="a"><path fill="#fff" d="M0 0h120v24.304H0z"/></clipPath></defs></svg>